<svg width="45" height="40" viewBox="0 0 45 40" fill="none" xmlns="http://www.w3.org/2000/svg">
<path d="M22.2222 0C22.2222 0 8.47556 11.8667 0.793334 18.2933C0.548882 18.5063 0.351933 18.7683 0.215263 19.0623C0.0785923 19.3564 0.00525248 19.6758 0 20C0 20.5894 0.234126 21.1546 0.650874 21.5713C1.06762 21.9881 1.63285 22.2222 2.22222 22.2222H6.66667V37.7778C6.66667 38.3671 6.90079 38.9324 7.31754 39.3491C7.73429 39.7659 8.29952 40 8.88889 40H15.5556C16.1449 40 16.7102 39.7659 17.1269 39.3491C17.5437 38.9324 17.7778 38.3671 17.7778 37.7778V28.8889H26.6667V37.7778C26.6667 38.3671 26.9008 38.9324 27.3175 39.3491C27.7343 39.7659 28.2995 40 28.8889 40H35.5556C36.1449 40 36.7102 39.7659 37.1269 39.3491C37.5437 38.9324 37.7778 38.3671 37.7778 37.7778V22.2222H42.2222C42.8116 22.2222 43.3768 21.9881 43.7936 21.5713C44.2103 21.1546 44.4444 20.5894 44.4444 20C44.4413 19.6696 44.3631 19.3442 44.2156 19.0485C44.0682 18.7529 43.8554 18.4946 43.5933 18.2933C35.9644 11.8667 22.2222 0 22.2222 0Z" fill="white"/>
</svg>
