<svg width="43" height="40" viewBox="0 0 43 40" fill="none" xmlns="http://www.w3.org/2000/svg">
<path d="M13.2366 20C10.8259 20.0744 8.85417 21.0268 7.32143 22.8571H4.33036C3.11012 22.8571 2.08333 22.5558 1.25 21.9531C0.416667 21.3504 0 20.4688 0 19.308C0 14.0551 0.922619 11.4286 2.76786 11.4286C2.85714 11.4286 3.1808 11.5848 3.73884 11.8973C4.29687 12.2098 5.02232 12.526 5.91518 12.846C6.80804 13.1659 7.69345 13.3259 8.57143 13.3259C9.56845 13.3259 10.558 13.1548 11.5402 12.8125C11.4658 13.3631 11.4286 13.8542 11.4286 14.2857C11.4286 16.3542 12.0312 18.2589 13.2366 20ZM37.1429 34.2188C37.1429 36.0045 36.5997 37.4144 35.5134 38.4487C34.4271 39.4829 32.9836 40 31.183 40H11.6741C9.87351 40 8.43006 39.4829 7.34375 38.4487C6.25744 37.4144 5.71429 36.0045 5.71429 34.2188C5.71429 33.4301 5.74033 32.66 5.79241 31.9085C5.84449 31.157 5.94866 30.346 6.10491 29.4754C6.26116 28.6049 6.45833 27.7976 6.69643 27.0536C6.93452 26.3095 7.25446 25.5841 7.65625 24.8772C8.05804 24.1704 8.51934 23.5677 9.04018 23.0692C9.56101 22.5707 10.1972 22.1726 10.9487 21.875C11.7001 21.5774 12.5298 21.4286 13.4375 21.4286C13.5863 21.4286 13.9062 21.5885 14.3973 21.9085C14.8884 22.2284 15.4315 22.5856 16.0268 22.9799C16.622 23.3743 17.4182 23.7314 18.4152 24.0513C19.4122 24.3713 20.4167 24.5313 21.4286 24.5313C22.4405 24.5313 23.4449 24.3713 24.442 24.0513C25.439 23.7314 26.2351 23.3743 26.8304 22.9799C27.4256 22.5856 27.9687 22.2284 28.4598 21.9085C28.9509 21.5885 29.2708 21.4286 29.4196 21.4286C30.3274 21.4286 31.157 21.5774 31.9085 21.875C32.66 22.1726 33.2961 22.5707 33.817 23.0692C34.3378 23.5677 34.7991 24.1704 35.2009 24.8772C35.6027 25.5841 35.9226 26.3095 36.1607 27.0536C36.3988 27.7976 36.596 28.6049 36.7522 29.4754C36.9085 30.346 37.0126 31.157 37.0647 31.9085C37.1168 32.66 37.1429 33.4301 37.1429 34.2188ZM14.2857 5.71429C14.2857 7.29167 13.7277 8.63839 12.6116 9.75446C11.4955 10.8705 10.1488 11.4286 8.57143 11.4286C6.99405 11.4286 5.64732 10.8705 4.53125 9.75446C3.41518 8.63839 2.85714 7.29167 2.85714 5.71429C2.85714 4.1369 3.41518 2.79018 4.53125 1.67411C5.64732 0.558036 6.99405 0 8.57143 0C10.1488 0 11.4955 0.558036 12.6116 1.67411C13.7277 2.79018 14.2857 4.1369 14.2857 5.71429ZM30 14.2857C30 16.6518 29.1629 18.6719 27.4888 20.346C25.8147 22.0201 23.7946 22.8571 21.4286 22.8571C19.0625 22.8571 17.0424 22.0201 15.3683 20.346C13.6942 18.6719 12.8571 16.6518 12.8571 14.2857C12.8571 11.9196 13.6942 9.89955 15.3683 8.22545C17.0424 6.55134 19.0625 5.71429 21.4286 5.71429C23.7946 5.71429 25.8147 6.55134 27.4888 8.22545C29.1629 9.89955 30 11.9196 30 14.2857ZM42.8571 19.308C42.8571 20.4688 42.4405 21.3504 41.6071 21.9531C40.7738 22.5558 39.747 22.8571 38.5268 22.8571H35.5357C34.003 21.0268 32.0312 20.0744 29.6205 20C30.8259 18.2589 31.4286 16.3542 31.4286 14.2857C31.4286 13.8542 31.3914 13.3631 31.317 12.8125C32.2991 13.1548 33.2887 13.3259 34.2857 13.3259C35.1637 13.3259 36.0491 13.1659 36.942 12.846C37.8348 12.526 38.5603 12.2098 39.1183 11.8973C39.6763 11.5848 40 11.4286 40.0893 11.4286C41.9345 11.4286 42.8571 14.0551 42.8571 19.308ZM40 5.71429C40 7.29167 39.442 8.63839 38.3259 9.75446C37.2098 10.8705 35.8631 11.4286 34.2857 11.4286C32.7083 11.4286 31.3616 10.8705 30.2455 9.75446C29.1295 8.63839 28.5714 7.29167 28.5714 5.71429C28.5714 4.1369 29.1295 2.79018 30.2455 1.67411C31.3616 0.558036 32.7083 0 34.2857 0C35.8631 0 37.2098 0.558036 38.3259 1.67411C39.442 2.79018 40 4.1369 40 5.71429Z" fill="white"/>
</svg>
