<svg width="60" height="60" viewBox="0 0 60 60" fill="none" xmlns="http://www.w3.org/2000/svg">
<path d="M30 0.692617C36.7642 0.693418 43.3199 3.03331 48.5559 7.31561C53.7919 11.5979 57.386 17.5591 58.7288 24.1886C60.0716 30.8182 59.0805 37.7081 55.9236 43.6904C52.7666 49.6726 47.6381 54.3792 41.4074 57.0121C34.249 60.0167 26.191 60.0592 19.0013 57.1302C11.8115 54.2012 6.0772 48.54 3.05625 41.3884C0.0353141 34.2368 -0.0255219 26.179 2.88709 18.9826C5.79971 11.7862 11.4479 6.03901 18.5926 3.0018C22.201 1.47244 26.0809 0.687032 30 0.692617ZM30 0C13.4312 0 0 13.4368 0 30C0 46.5632 13.4368 60 30 60C46.5632 60 60 46.5632 60 30C60 13.4368 46.5688 0 30 0Z" fill="white"/>
<path d="M44.5297 19.1245C44.4522 19.0621 44.3774 18.997 44.3067 18.9278C44.2361 18.8585 44.0837 18.5967 44.0089 18.5856C43.9341 18.5745 43.8828 18.7366 43.8538 18.8017C43.7845 18.9541 43.7235 19.112 43.6681 19.2713C43.5559 19.5885 43.4617 19.9141 43.3509 20.2327C42.9353 21.4198 43.0046 22.5876 43.4285 23.7512C44.1959 25.8526 45.3235 27.7683 46.5314 29.637C47.2074 30.6829 47.9014 31.7149 48.6425 32.7219C49.0124 32.6637 49.3614 32.3825 49.662 32.1955C50.067 31.945 50.4251 31.6258 50.7204 31.2522C49.7109 30.0565 48.7822 28.795 47.9402 27.4761C46.8583 25.7722 45.9385 23.9991 45.4828 22.0113C45.392 21.62 45.3368 21.2213 45.3179 20.82C45.3062 20.6175 45.3062 20.4144 45.3179 20.2119C45.3304 20.0512 45.4191 19.8323 45.3179 19.691C45.2656 19.6297 45.2027 19.5781 45.1323 19.5387C44.9259 19.4071 44.7209 19.2755 44.5297 19.1245Z" fill="white"/>
<path d="M50.8977 34.8026C50.6609 34.9287 50.424 35.0423 50.1982 35.1877C50.0832 35.2598 49.9724 35.3373 49.8602 35.4135C49.8905 35.4484 49.9183 35.4854 49.9433 35.5243C51.1138 37.3833 51.19 40.3546 49.295 42.1264C48.596 42.8098 47.8213 43.4112 46.9858 43.9188C47.2076 44.3717 47.3146 44.8722 47.2975 45.3761C47.2975 45.6961 47.2601 46.0133 47.2324 46.3305C47.3192 46.2741 47.4122 46.2276 47.5095 46.192C48.6082 45.7726 49.6171 45.1478 50.4822 44.351C51.4685 43.4326 52.0447 42.2884 52.5143 41.0542C52.7841 40.3637 52.9575 39.6393 53.0296 38.9015C53.182 37.1631 52.8578 35.541 51.8854 34.0934C51.5813 34.3629 51.2503 34.6006 50.8977 34.8026Z" fill="white"/>
<path d="M44.006 46.5729C44.1265 46.5729 44.2194 46.584 44.3011 46.5909C44.2761 45.8844 43.952 45.2057 43.6306 44.5878C43.6159 44.5606 43.6082 44.5301 43.6085 44.4992C43.4935 44.479 43.3774 44.4665 43.2608 44.4618C43.1223 45.1239 43.2261 45.8096 43.1721 46.4828C43.4475 46.533 43.7262 46.5631 44.006 46.5729Z" fill="white"/>
<path d="M46.6518 44.0047C46.5542 43.6375 46.4292 43.2782 46.2778 42.9298C46.0553 42.4545 45.7817 42.0049 45.4619 41.5888C45.2098 41.2592 44.9369 40.9461 44.6543 40.6427C44.5601 40.543 44.3773 40.2715 44.2526 40.2978C44.0905 40.3352 43.9755 40.6026 43.9243 40.7355L43.9146 40.7549C43.7555 41.1356 43.6168 41.5245 43.499 41.9199C43.4422 42.1138 43.391 42.3078 43.3439 42.5045C43.3273 42.5765 43.1901 42.9713 43.2289 43.0226C43.5503 43.4399 43.7994 43.9081 43.9659 44.4078C44.3413 45.1253 44.7153 45.9316 44.6862 46.7627C44.6848 46.7885 44.6787 46.8139 44.6682 46.8375C44.6869 46.9784 44.6938 47.1207 44.6889 47.2628C44.6889 48.4901 43.819 49.4348 42.6762 49.5124C42.5875 49.9543 42.3534 50.3698 42.1415 50.7591C42.0362 50.953 41.9379 51.1525 41.8381 51.3506H41.8825C42.4241 51.3797 42.9657 51.4337 43.5101 51.3589C44.3967 51.2384 45.1724 50.9433 45.7417 50.1911C46.3374 49.4002 46.6477 48.443 46.8084 47.4761C46.8663 47.0851 46.8877 46.6895 46.8721 46.2945C46.8582 45.6476 46.9469 44.9799 46.7516 44.3482C46.7183 44.2277 46.6851 44.1169 46.6518 44.0047Z" fill="white"/>
<path d="M38.7615 50.3436C38.9061 50.1547 39.0163 49.9418 39.087 49.7147C39.263 49.2686 39.6037 48.8835 39.6522 48.3987C38.9305 47.8903 38.1561 47.4692 37.3915 47.0329C36.3955 46.4663 35.376 46.0632 34.2207 46.4178C34.264 46.7123 34.3378 47.0016 34.441 47.2808C34.5138 47.5147 34.6127 47.7396 34.736 47.9513C34.8287 48.0855 34.8941 48.2365 34.9286 48.3959C35.6873 48.3156 36.4531 48.4568 37.1333 48.8024C37.8135 49.1481 38.379 49.6834 38.7615 50.3436Z" fill="white"/>
<path d="M32.2399 50.7605C32.193 50.6834 32.1387 50.6111 32.0778 50.5445C31.4877 49.8518 31.5542 48.9958 31.2578 48.1896C31.2495 48.1632 31.0611 48.432 31.0486 48.4527C30.9761 48.5814 30.9131 48.7152 30.8602 48.8531C30.7579 49.1249 30.6714 49.4024 30.6012 49.6842C30.1454 51.4075 30.6136 53.0573 32.3383 53.9424C32.8923 54.2195 33.6612 54.4037 34.0546 54.3109C34.0213 54.3192 33.7872 53.9965 33.7553 53.9591C33.6473 53.8302 33.5379 53.7 33.4326 53.5684C33.2079 53.2932 33.0015 53.0035 32.8148 52.7013C32.6036 52.3535 32.4536 51.9721 32.3715 51.5737C32.3404 51.3787 32.3196 51.1822 32.3092 50.985C32.3021 50.9061 32.2785 50.8296 32.2399 50.7605Z" fill="white"/>
<path d="M46.2669 16.3097L47.2767 17.1879C47.4539 17.3691 47.6457 17.5355 47.8502 17.6852C47.961 17.7517 47.9887 17.7199 48.1092 17.6755C48.2115 17.6401 48.3155 17.61 48.4209 17.5855C48.8151 17.5012 49.2231 17.5055 49.6155 17.5979C50.0078 17.6904 50.3748 17.8688 50.6899 18.1202C50.7716 18.1839 50.8506 18.2518 50.9268 18.3224C51.6 18.9486 52.035 19.7243 52.4616 20.6067C52.6991 19.7699 52.5945 18.873 52.1707 18.1133C51.6956 17.1921 50.8603 16.7488 49.9751 16.3623C49.3719 16.0859 48.7268 15.9122 48.0663 15.8484C47.7427 15.8228 47.4172 15.8359 47.0966 15.8872C46.9271 15.9154 46.7596 15.9548 46.5952 16.0049C46.4346 16.0505 46.2769 16.1056 46.1228 16.1698C46.1635 16.2234 46.2121 16.2705 46.2669 16.3097Z" fill="white"/>
<path d="M51.3922 21.5695C49.5114 19.5087 47.4141 17.6566 45.1364 16.0452C44.1862 15.372 43.1099 14.6101 43.2913 13.2595C43.3127 13.098 43.3734 12.9442 43.4681 12.8116C43.5628 12.679 43.6885 12.5717 43.8343 12.499C45.1766 11.8452 45.268 13.2623 46.0576 13.4133C46.0709 12.8024 45.8648 12.2071 45.4767 11.7352C45.0887 11.2634 44.5443 10.9462 43.9424 10.8413C43.3405 10.7364 42.721 10.8507 42.1962 11.1635C41.6713 11.4763 41.276 11.9668 41.0819 12.5461C40.4641 14.4383 42.1166 16.2488 43.6168 17.5593L48.7214 22.0156C49.9252 23.0669 51.1553 24.1516 51.895 25.5673C52.1471 26.0502 52.3242 26.5687 52.42 27.1049C52.52 27.6371 52.5223 28.1829 52.4269 28.7159C52.3793 28.9763 52.3026 29.2304 52.1984 29.4737C52.1425 29.6038 52.0782 29.7301 52.0058 29.8518C51.9412 29.9636 51.8901 30.0827 51.8534 30.2064C51.7801 30.4101 51.6839 30.6048 51.5667 30.7869C51.4282 31.032 51.2758 31.2703 51.1193 31.5044L50.9129 31.6429C50.8421 31.8066 50.7264 31.9469 50.579 32.0474C50.3842 32.1822 50.1838 32.3074 49.9778 32.4228C49.5682 32.6564 49.1418 32.8592 48.702 33.0295C48.2621 33.1996 47.8108 33.3384 47.3514 33.4451C46.8907 33.5515 46.4233 33.6265 45.9524 33.6695C45.4804 33.7124 45.0061 33.7249 44.5325 33.7069C44.0584 33.6873 43.586 33.6378 43.1182 33.5587C42.6497 33.4786 42.187 33.368 41.7329 33.2276C41.2818 33.0868 40.8407 32.9156 40.4128 32.7151C39.9863 32.514 39.5747 32.2825 39.1813 32.0225C38.7324 31.7264 38.3101 31.3918 37.9194 31.0223V31.014C40.3075 28.4112 41.841 24.3912 41.841 19.8781C41.841 14.5866 39.734 9.97234 36.6131 7.52602V7.50801C36.5923 7.49554 36.5688 7.48585 36.548 7.47476C35.0547 6.32502 33.3343 5.66565 31.5002 5.66565C30.9964 5.66557 30.4939 5.71568 30 5.81525V38.5885C30.0097 38.4389 30.0263 38.2893 30.0332 38.1411C29.9707 41.1913 30.3742 44.2333 31.2301 47.1617C31.6872 48.7284 32.2926 50.2896 33.3453 51.5377C34.3981 52.7857 35.9634 53.6848 37.5925 53.603C39.2894 53.5185 40.8117 52.3716 41.6747 50.9074C42.5377 49.4432 42.819 47.7033 42.8356 46.0036C42.8494 44.6974 42.7192 43.3717 42.9741 42.0945C43.229 40.8173 43.9839 39.5346 45.2099 39.0802C46.4358 38.6259 48.0842 39.3795 48.195 40.6816C48.9722 39.4072 47.9748 37.5773 46.5328 37.2033C45.0907 36.8292 43.5323 37.6299 42.6264 38.8171C41.7205 40.0042 41.3451 41.5072 41.0902 42.9728C40.6746 45.3858 40.4987 47.9097 39.3559 50.0762C39.1661 50.435 38.9403 50.7924 38.6023 51.0168C37.6534 51.6415 36.3762 50.9378 35.6296 50.0804C33.5905 47.7393 33.2137 44.4009 33.2248 41.2966C35.1455 43.4572 37.5542 45.1279 40.2507 46.1699L40.4557 43.7236C37.8626 43.0836 35.9316 40.4156 36.1352 37.7532C37.1406 37.8933 38.1053 38.2432 38.9668 38.7801C39.8283 39.317 40.5673 40.029 41.1359 40.87C41.4815 40.0525 41.9203 39.2777 42.4436 38.5608C41.5132 37.8537 40.7043 36.9999 40.0485 36.0327C43.1445 36.2336 46.3458 36.3416 49.2547 35.2335C52.1637 34.1253 54.6876 31.4933 54.7389 28.3918C54.7749 25.7972 53.1417 23.4894 51.3922 21.5695ZM35.5797 23.7028C35.2713 23.7521 34.9552 23.7025 34.6767 23.561C34.3983 23.4196 34.1718 23.1935 34.0298 22.9154C33.8877 22.6372 33.8375 22.3212 33.8862 22.0127C33.935 21.7042 34.0802 21.419 34.301 21.1982C34.5219 20.9773 34.807 20.8321 35.1155 20.7834C35.424 20.7346 35.7401 20.7849 36.0182 20.9269C36.2964 21.0689 36.5225 21.2954 36.6639 21.5739C36.8054 21.8523 36.855 22.1684 36.8057 22.4768C36.7565 22.7843 36.6115 23.0683 36.3913 23.2884C36.1712 23.5086 35.8871 23.6536 35.5797 23.7028Z" fill="white"/>
<path d="M15.4704 19.1245C15.548 19.0621 15.6228 18.997 15.6934 18.9278C15.7641 18.8585 15.9164 18.5967 15.9912 18.5856C16.066 18.5745 16.1173 18.7366 16.1464 18.8017C16.2156 18.9541 16.2766 19.112 16.332 19.2713C16.4442 19.5885 16.5384 19.9141 16.6492 20.2327C17.0648 21.4198 16.9955 22.5876 16.5717 23.7512C15.8042 25.8526 14.6767 27.7683 13.4687 29.637C12.7927 30.6829 12.0987 31.7149 11.3576 32.7219C10.9878 32.6637 10.6387 32.3825 10.3381 32.1955C9.93316 31.945 9.57502 31.6258 9.27979 31.2522C10.2892 30.0565 11.218 28.795 12.0599 27.4761C13.1418 25.7722 14.0616 23.9991 14.5174 22.0113C14.6082 21.62 14.6633 21.2213 14.6822 20.82C14.694 20.6175 14.694 20.4144 14.6822 20.2119C14.6697 20.0512 14.5811 19.8323 14.6822 19.691C14.7346 19.6297 14.7974 19.5781 14.8678 19.5387C15.0742 19.4071 15.2792 19.2755 15.4704 19.1245Z" fill="white"/>
<path d="M9.10233 34.8027C9.33921 34.9287 9.57608 35.0423 9.79495 35.1878C9.90992 35.2598 10.0207 35.3374 10.1329 35.4136C10.1026 35.4484 10.0748 35.4855 10.0498 35.5244C8.87931 37.3834 8.80312 40.3547 10.6981 42.1264C11.3971 42.8098 12.1719 43.4112 13.0073 43.9189C12.788 44.3724 12.6833 44.8728 12.7026 45.3762C12.7026 45.6961 12.74 46.0134 12.7677 46.3306C12.6808 46.2741 12.5879 46.2276 12.4906 46.1921C11.3919 45.7726 10.383 45.1478 9.5179 44.3511C8.53162 43.4327 7.95536 42.2885 7.48576 41.0542C7.21596 40.3637 7.04256 39.6394 6.97046 38.9016C6.82362 37.1576 7.14361 35.541 8.1202 34.0879C8.42233 34.359 8.75142 34.5986 9.10233 34.8027Z" fill="white"/>
<path d="M15.9938 46.5729C15.8733 46.5729 15.7805 46.584 15.6987 46.5909C15.7237 45.8844 16.0478 45.2057 16.3692 44.5878C16.384 44.5606 16.3916 44.5301 16.3913 44.4992C16.5063 44.479 16.6224 44.4665 16.739 44.4618C16.8776 45.1239 16.7737 45.8096 16.8277 46.4828C16.5523 46.533 16.2736 46.5631 15.9938 46.5729Z" fill="white"/>
<path d="M13.348 44.0047C13.4456 43.6375 13.5706 43.2782 13.722 42.9298C13.9446 42.4545 14.2181 42.0049 14.5379 41.5888C14.79 41.2592 15.0629 40.9461 15.3455 40.6427C15.4397 40.543 15.6225 40.2715 15.7472 40.2978C15.9093 40.3352 16.0243 40.6026 16.0755 40.7355L16.0852 40.7549C16.2443 41.1356 16.383 41.5245 16.5008 41.9199C16.5576 42.1138 16.6088 42.3078 16.6559 42.5045C16.6726 42.5765 16.8097 42.9713 16.7709 43.0226C16.4495 43.4399 16.2004 43.9081 16.034 44.4078C15.6586 45.1253 15.2845 45.9316 15.3136 46.7627C15.315 46.7885 15.3211 46.8139 15.3316 46.8375C15.313 46.9784 15.306 47.1207 15.3109 47.2628C15.3109 48.4901 16.1808 49.4348 17.3236 49.5124C17.4123 49.9543 17.6464 50.3698 17.8583 50.7591C17.9636 50.953 18.0619 51.1525 18.1617 51.3506H18.1173C17.5757 51.3797 17.0341 51.4337 16.4897 51.3589C15.6032 51.2384 14.8274 50.9433 14.2581 50.1911C13.6624 49.4002 13.3521 48.443 13.1915 47.4761C13.1335 47.0851 13.1121 46.6895 13.1277 46.2945C13.1416 45.6476 13.0529 44.9799 13.2483 44.3482C13.2815 44.2277 13.3147 44.1169 13.348 44.0047Z" fill="white"/>
<path d="M21.2384 50.3436C21.0937 50.1547 20.9835 49.9418 20.9128 49.7147C20.7369 49.2686 20.3961 48.8835 20.3477 48.3987C21.0694 47.8903 21.8437 47.4692 22.6084 47.0329C23.6043 46.4663 24.6239 46.0632 25.7792 46.4178C25.7358 46.7123 25.662 47.0016 25.5589 47.2808C25.4861 47.5147 25.3871 47.7396 25.2638 47.9513C25.1712 48.0855 25.1058 48.2365 25.0713 48.3959C24.3126 48.3156 23.5468 48.4568 22.8666 48.8024C22.1864 49.1481 21.6208 49.6834 21.2384 50.3436Z" fill="white"/>
<path d="M27.76 50.7605C27.8069 50.6834 27.8612 50.6111 27.922 50.5445C28.5122 49.8518 28.4457 48.9958 28.7421 48.1896C28.7504 48.1632 28.9388 48.432 28.9513 48.4527C29.0238 48.5814 29.0868 48.7152 29.1397 48.8531C29.242 49.1249 29.3285 49.4024 29.3987 49.6842C29.8544 51.4075 29.3862 53.0573 27.6616 53.9424C27.1075 54.2195 26.3387 54.4037 25.9453 54.3109C25.9786 54.3192 26.2127 53.9965 26.2445 53.9591C26.3526 53.8302 26.462 53.7 26.5673 53.5684C26.792 53.2932 26.9983 53.0035 27.1851 52.7013C27.3963 52.3535 27.5462 51.9721 27.6284 51.5737C27.6595 51.3787 27.6803 51.1822 27.6907 50.985C27.6977 50.9061 27.7213 50.8296 27.76 50.7605Z" fill="white"/>
<path d="M13.7332 16.3097L12.7234 17.1879C12.5461 17.3691 12.3543 17.5355 12.1499 17.6852C12.0391 17.7517 12.0114 17.7199 11.8908 17.6755C11.7886 17.6401 11.6846 17.61 11.5792 17.5855C11.1849 17.5012 10.777 17.5055 10.3846 17.5979C9.99221 17.6904 9.62525 17.8688 9.31015 18.1202C9.22842 18.1839 9.14946 18.2518 9.07327 18.3224C8.40005 18.9486 7.96509 19.7243 7.53843 20.6067C7.30095 19.7699 7.40559 18.873 7.82933 18.1133C8.30447 17.1921 9.13976 16.7488 10.0249 16.3623C10.6281 16.0859 11.2733 15.9122 11.9338 15.8484C12.2574 15.8228 12.5829 15.8359 12.9034 15.8872C13.073 15.9154 13.2405 15.9548 13.4049 16.0049C13.5655 16.0505 13.7232 16.1056 13.8773 16.1698C13.8365 16.2234 13.788 16.2705 13.7332 16.3097Z" fill="white"/>
<path d="M5.26816 28.3917C5.31942 31.4946 7.85439 34.1238 10.7523 35.2334C13.6502 36.3429 16.8556 36.2349 19.953 36.0327C19.2972 36.9998 18.4883 37.8537 17.558 38.5607C18.0812 39.2776 18.52 40.0524 18.8656 40.8699C19.4342 40.029 20.1732 39.317 21.0347 38.78C21.8962 38.2431 22.8609 37.8932 23.8663 37.7531C24.0699 40.4155 22.1389 43.0835 19.5458 43.7235L19.7494 46.1698C22.4443 45.129 24.852 43.4602 26.7725 41.3021C26.7836 44.4064 26.4068 47.7448 24.3678 50.0858C23.6211 50.9433 22.3439 51.647 21.3951 51.0223C21.0571 50.7979 20.8313 50.4405 20.6415 50.0817C19.4987 47.9152 19.3255 45.3913 18.9072 42.9782C18.6523 41.5071 18.2769 40.0041 17.3709 38.8225C16.465 37.6409 14.9094 36.8333 13.4646 37.2087C12.0198 37.5841 11.021 39.4126 11.8023 40.687C11.9131 39.3849 13.5629 38.6314 14.7875 39.0857C16.012 39.5401 16.7628 40.8186 17.0233 42.1C17.2837 43.3813 17.1535 44.7028 17.1618 46.0091C17.1784 47.7088 17.4596 49.4486 18.3226 50.9128C19.1856 52.377 20.708 53.524 22.4049 53.6085C24.0339 53.6902 25.6006 52.7898 26.652 51.5431C27.7034 50.2964 28.3143 48.7339 28.7673 47.1672C29.6231 44.2387 30.0267 41.1968 29.9641 38.1465C29.971 38.2947 29.9877 38.4443 29.9973 38.594V5.81518C29.5044 5.71532 29.0028 5.66474 28.4999 5.66418C26.6659 5.66418 24.9454 6.32356 23.4521 7.4733C23.4313 7.48438 23.4078 7.49408 23.387 7.50655V7.52455C20.2661 9.97088 18.1591 14.5892 18.1591 19.8767C18.1591 24.3898 19.6926 28.4097 22.0807 31.0126V31.0209C21.69 31.3903 21.2677 31.725 20.8188 32.021C20.4254 32.2811 20.0139 32.5126 19.5873 32.7136C19.1594 32.9141 18.7183 33.0854 18.2672 33.2262C17.8131 33.3665 17.3504 33.4771 16.882 33.5572C16.4141 33.6363 15.9417 33.6859 15.4676 33.7055C14.994 33.7235 14.5198 33.711 14.0478 33.6681C13.5769 33.6251 13.1094 33.5501 12.6487 33.4437C12.1893 33.337 11.738 33.1981 11.2981 33.0281C10.8584 32.8577 10.4319 32.6549 10.0223 32.4214C9.81727 32.305 9.61687 32.1799 9.42109 32.046C9.27376 31.9454 9.158 31.8052 9.08725 31.6415L8.88085 31.5029C8.72432 31.2688 8.57333 31.0306 8.43342 30.7854C8.3162 30.6034 8.22001 30.4087 8.14668 30.205C8.11002 30.0812 8.05887 29.9622 7.9943 29.8504C7.92191 29.7287 7.85759 29.6023 7.80175 29.4722C7.69748 29.229 7.62081 28.9748 7.57319 28.7145C7.47553 28.1819 7.47553 27.636 7.57319 27.1034C7.67397 26.5668 7.85615 26.0488 8.11343 25.5672C8.85315 24.1515 10.0832 23.0669 11.287 22.0155L16.3916 17.5592C17.8918 16.2488 19.5444 14.4383 18.9266 12.546C18.7393 11.9571 18.345 11.456 17.8165 11.1356C17.288 10.8152 16.6614 10.6973 16.0526 10.8036C15.4438 10.91 14.8943 11.2334 14.5058 11.714C14.1172 12.1946 13.9161 12.7998 13.9397 13.4173C14.7293 13.2663 14.8207 11.8493 16.1561 12.5031C16.3019 12.5758 16.4277 12.6831 16.5223 12.8157C16.617 12.9483 16.6777 13.1021 16.6991 13.2636C16.8806 14.6142 15.8042 15.3761 14.854 16.0493C12.5764 17.6607 10.479 19.5128 8.59826 21.5736C6.85841 23.4894 5.22522 25.7972 5.26816 28.3917ZM23.1945 22.4768C23.1451 22.1684 23.1947 21.8522 23.3362 21.5738C23.4777 21.2953 23.7037 21.0688 23.9819 20.9268C24.2601 20.7848 24.5761 20.7345 24.8846 20.7833C25.1931 20.832 25.4782 20.9772 25.6991 21.1981C25.9199 21.4189 26.0651 21.7041 26.1139 22.0126C26.1626 22.3211 26.1124 22.6371 25.9704 22.9153C25.8283 23.1935 25.6018 23.4195 25.3234 23.561C25.0449 23.7024 24.7288 23.752 24.4204 23.7027C24.1131 23.6533 23.8291 23.5082 23.609 23.2881C23.3889 23.068 23.2439 22.7841 23.1945 22.4768Z" fill="white"/>
</svg>
