<svg width="164" height="99" viewBox="0 0 164 99" fill="none" xmlns="http://www.w3.org/2000/svg">
<path d="M1.88547 49.5466C1.88307 46.4446 3.13269 43.4359 5.42527 41.024C7.71785 38.612 10.9143 36.943 14.48 36.2962C14.067 33.7052 14.5446 31.0679 15.855 28.7028C17.1655 26.3377 19.2529 24.3461 21.8649 22.9686C24.4769 21.591 27.5019 20.8865 30.5744 20.94C33.6469 20.9936 36.6354 21.8029 39.179 23.2703C38.9717 20.5262 39.7513 17.7934 41.4143 15.4355C43.0772 13.0776 45.5445 11.2064 48.488 10.0709C51.4315 8.93536 54.7116 8.58933 57.8919 9.07885C61.0722 9.56836 64.0019 10.8702 66.2913 12.8112C67.2116 9.95698 69.2082 7.43897 71.9741 5.64425C74.7401 3.84953 78.1223 2.87744 81.6009 2.87744C85.0794 2.87744 88.4616 3.84953 91.2276 5.64425C93.9936 7.43897 95.9902 9.95698 96.9105 12.8112C99.1944 10.8642 102.123 9.55706 105.303 9.06442C108.484 8.57178 111.766 8.91716 114.71 10.0544C117.653 11.1916 120.119 13.0664 121.777 15.4282C123.434 17.7899 124.205 20.5259 123.985 23.2703C126.634 21.7432 129.76 20.9273 132.96 20.9282C135.233 20.9175 137.482 21.3244 139.554 22.121C141.626 22.9177 143.471 24.0853 144.964 25.5442C146.457 27.0032 147.562 28.719 148.204 30.5746C148.846 32.4302 149.01 34.3818 148.684 36.2962C152.307 36.9644 155.542 38.688 157.831 41.1694C160.119 43.6507 161.318 46.734 161.22 49.8871C161.121 53.0402 159.732 56.0651 157.292 58.4396C154.852 60.8142 151.514 62.3894 147.854 62.8932C149.085 65.5926 149.266 68.5564 148.371 71.3496C147.476 74.1429 145.552 76.6185 142.882 78.413C140.211 80.2076 136.935 81.2267 133.534 81.3206C130.133 81.4145 126.786 80.5784 123.985 78.9349C124.239 81.7854 123.422 84.6309 121.65 87.06C119.878 89.489 117.244 91.3757 114.129 92.4472C111.014 93.5188 107.58 93.7197 104.322 93.0209C101.064 92.3221 98.1511 90.7598 96.0055 88.5599C94.737 90.907 92.7039 92.8955 90.1475 94.2893C87.591 95.6832 84.6184 96.4241 81.582 96.4241C78.5457 96.4241 75.573 95.6832 73.0166 94.2893C70.4601 92.8955 68.4271 90.907 67.1586 88.5599C65.0129 90.7598 62.1005 92.3221 58.8425 93.0209C55.5844 93.7197 52.1496 93.5188 49.0346 92.4472C45.9196 91.3757 43.2859 89.489 41.5142 87.06C39.7425 84.6309 38.9247 81.7854 39.179 78.9349C36.3771 80.5649 33.036 81.39 29.6438 81.2895C26.2517 81.1891 22.9861 80.1684 20.3242 78.3766C17.6622 76.5848 15.7434 74.1157 14.848 71.3301C13.9527 68.5445 14.1276 65.5882 15.3473 62.8932C11.6032 62.3966 8.19027 60.7796 5.7225 58.3329C3.25472 55.8862 1.89412 52.7706 1.88547 49.5466Z" stroke="#A5E4FF" stroke-width="4.16667" stroke-linecap="round" stroke-linejoin="round"/>
</svg>
