<svg width="31" height="27" viewBox="0 0 31 27" fill="none" xmlns="http://www.w3.org/2000/svg">
<path d="M19.1078 6.19523C21.458 6.19523 23.7119 6.98957 25.3738 8.40352C27.0356 9.81746 27.9692 11.7352 27.9692 13.7348C27.9692 15.7344 27.0356 17.6522 25.3738 19.0661C23.7119 20.48 21.458 21.2744 19.1078 21.2744C18.0277 22.6186 16.4632 23.6276 14.6502 24.1492C12.8373 24.6708 10.8742 24.6768 9.05688 24.1662C7.23959 23.6556 5.66667 22.6562 4.57529 21.3186C3.48391 19.981 2.93324 18.3778 3.00632 16.7506C3.00068 15.711 3.25789 14.6825 3.76049 13.7348C3.25789 12.7872 3.00068 11.7586 3.00632 10.719C2.96111 9.10273 3.52771 7.51691 4.62252 6.19552C5.71733 4.87413 7.28236 3.88716 9.08669 3.38023C10.891 2.87329 12.8391 2.87326 14.6435 3.38012C16.4478 3.88698 18.0129 4.87388 19.1078 6.19523Z" stroke="#A5E4FF" stroke-width="4.16667" stroke-linecap="round" stroke-linejoin="round"/>
</svg>
